<svg width="616" height="546" viewBox="0 0 616 546" fill="none" xmlns="http://www.w3.org/2000/svg">
<g clip-path="url(#clip0_76_812)">
<g filter="url(#filter0_dddd_76_812)">
<path d="M0 534V12C0 5.37258 5.3726 0 12 0H448.289C451.508 0 454.591 1.29292 456.847 3.58836L612.558 162.014C614.764 164.258 616 167.279 616 170.426V534C616 540.627 610.627 546 604 546H12C5.37258 546 0 540.627 0 534Z" fill="#484A51"/>
</g>
<g opacity="0.05" clip-path="url(#clip1_76_812)">
<path d="M334.379 339.586H379.035H417.311V294.931C417.311 291.103 419.862 288.552 423.69 288.552H513H551.276V243.897C551.276 240.069 553.828 237.518 557.655 237.518H646.965H691.621C695.448 237.518 698 240.069 698 243.897V294.932V345.966V397.001V448.036V499.07V550.105C698 553.933 695.448 556.484 691.621 556.484H602.31H512.999H423.689H334.378C330.55 556.484 327.999 553.933 327.999 550.105V499.07V448.036V397.001V345.966C328 342.139 330.552 339.586 334.379 339.586ZM423.689 492.69H461.965V454.414H423.689H385.413V492.69H423.689ZM513 492.69H551.276V454.414H513H474.724V492.69H513ZM602.311 492.69H640.586V454.414H602.31H564.034V492.69H602.311ZM685.241 492.69V454.414H653.345V492.69H685.241ZM646.965 301.311H608.689V339.587H646.965H685.241V301.311H646.965ZM513 352.345H474.724V390.621H513H551.276V352.345H513ZM379.035 403.38H340.759V441.656H379.035H417.311V403.38H379.035ZM430.069 441.656H468.345H506.621V403.38H468.345H430.069V441.656ZM557.655 441.656H595.931V403.38H557.655H519.379V441.656H557.655ZM646.965 441.656H685.241V403.38H646.965H608.689V441.656H646.965ZM685.241 352.345H653.345V390.621H685.241V352.345ZM564.035 390.621H602.311H640.586V352.345H602.31H564.034V390.621H564.035ZM372.655 454.414H340.759V492.69H372.655V454.414ZM340.759 390.621H372.655V352.345H340.759V390.621ZM385.414 390.621H423.69H461.966V352.345H423.69H385.414V390.621ZM430.069 339.586H468.345H506.621V301.31H430.069V339.586ZM519.379 339.586H557.655H595.931V301.31H557.655H519.379V339.586ZM564.035 288.552H602.311H640.586V250.276H564.034V288.552H564.035ZM685.241 250.276H653.345V288.552H685.241V250.276ZM685.241 505.448H646.965H608.689V543.724H685.241V505.448ZM595.931 505.448H557.655H519.379V543.724H595.931V505.448ZM506.621 505.448H468.345H430.069V543.724H506.621V505.448ZM340.759 543.724H417.31V505.448H379.034H340.758V543.724H340.759Z" fill="#E9E8E5"/>
</g>
</g>
<defs>
<filter id="filter0_dddd_76_812" x="-77" y="-14" width="770" height="829" filterUnits="userSpaceOnUse" color-interpolation-filters="sRGB">
<feFlood flood-opacity="0" result="BackgroundImageFix"/>
<feColorMatrix in="SourceAlpha" type="matrix" values="0 0 0 0 0 0 0 0 0 0 0 0 0 0 0 0 0 0 127 0" result="hardAlpha"/>
<feOffset dy="12"/>
<feGaussianBlur stdDeviation="13"/>
<feColorMatrix type="matrix" values="0 0 0 0 0.145098 0 0 0 0 0.168627 0 0 0 0 0.2 0 0 0 0.05 0"/>
<feBlend mode="normal" in2="BackgroundImageFix" result="effect1_dropShadow_76_812"/>
<feColorMatrix in="SourceAlpha" type="matrix" values="0 0 0 0 0 0 0 0 0 0 0 0 0 0 0 0 0 0 127 0" result="hardAlpha"/>
<feOffset dy="48"/>
<feGaussianBlur stdDeviation="24"/>
<feColorMatrix type="matrix" values="0 0 0 0 0.145098 0 0 0 0 0.168627 0 0 0 0 0.2 0 0 0 0.05 0"/>
<feBlend mode="normal" in2="effect1_dropShadow_76_812" result="effect2_dropShadow_76_812"/>
<feColorMatrix in="SourceAlpha" type="matrix" values="0 0 0 0 0 0 0 0 0 0 0 0 0 0 0 0 0 0 127 0" result="hardAlpha"/>
<feOffset dy="108"/>
<feGaussianBlur stdDeviation="32.5"/>
<feColorMatrix type="matrix" values="0 0 0 0 0.145098 0 0 0 0 0.168627 0 0 0 0 0.2 0 0 0 0.02 0"/>
<feBlend mode="normal" in2="effect2_dropShadow_76_812" result="effect3_dropShadow_76_812"/>
<feColorMatrix in="SourceAlpha" type="matrix" values="0 0 0 0 0 0 0 0 0 0 0 0 0 0 0 0 0 0 127 0" result="hardAlpha"/>
<feOffset dy="192"/>
<feGaussianBlur stdDeviation="38.5"/>
<feColorMatrix type="matrix" values="0 0 0 0 0.145098 0 0 0 0 0.168627 0 0 0 0 0.2 0 0 0 0.01 0"/>
<feBlend mode="normal" in2="effect3_dropShadow_76_812" result="effect4_dropShadow_76_812"/>
<feBlend mode="normal" in="SourceGraphic" in2="effect4_dropShadow_76_812" result="shape"/>
</filter>
<clipPath id="clip0_76_812">
<rect width="616" height="546" fill="white"/>
</clipPath>
<clipPath id="clip1_76_812">
<rect width="370" height="370" fill="white" transform="matrix(-1 0 0 1 698 212)"/>
</clipPath>
</defs>
</svg>
