<svg width="456" height="456" viewBox="0 0 456 456" fill="none" xmlns="http://www.w3.org/2000/svg">
<g opacity="0.2" clip-path="url(#clip0_111_1766)">
<path d="M7.86209 157.241H62.8968H110.069V102.206C110.069 97.489 113.214 94.3443 117.931 94.3443H228H275.173V39.3105C275.173 34.5931 278.317 31.4484 283.035 31.4484H393.103H448.138C452.855 31.4484 456 34.5931 456 39.3105V102.207V165.104V228.001V290.898V353.795V416.691C456 421.409 452.855 424.553 448.138 424.553H338.069H227.999H117.93H7.86029C3.14285 424.553 -0.00180054 421.409 -0.00180054 416.691V353.795V290.898V228.001V165.104C0 160.387 3.14465 157.241 7.86209 157.241ZM117.931 345.931H165.103V298.759H117.931H70.758V345.931H117.931ZM228 345.931H275.173V298.759H228H180.827V345.931H228ZM338.069 345.931H385.241V298.759H338.069H290.896V345.931H338.069ZM440.276 345.931V298.759H400.965V345.931H440.276ZM393.103 110.069H345.931V157.242H393.103H440.276V110.069H393.103ZM228 172.965H180.827V220.138H228H275.173V172.965H228ZM62.8968 235.862H15.7242V283.035H62.8968H110.069V235.862H62.8968ZM125.793 283.035H172.965H220.138V235.862H172.965H125.793V283.035ZM283.035 283.035H330.207V235.862H283.035H235.862V283.035H283.035ZM393.103 283.035H440.276V235.862H393.103H345.931V283.035H393.103ZM440.276 172.965H400.965V220.138H440.276V172.965ZM290.897 220.138H338.069H385.241V172.965H338.069H290.896V220.138H290.897ZM55.0347 298.759H15.7242V345.931H55.0347V298.759ZM15.7242 220.138H55.0347V172.965H15.7242V220.138ZM70.7589 220.138H117.931H165.104V172.965H117.931H70.7589V220.138ZM125.793 157.241H172.965H220.138V110.068H125.793V157.241ZM235.862 157.241H283.035H330.207V110.068H283.035H235.862V157.241ZM290.897 94.3452H338.069H385.241V47.1726H290.896V94.3452H290.897ZM440.276 47.1726H400.965V94.3452H440.276V47.1726ZM440.276 361.655H393.103H345.931V408.827H440.276V361.655ZM330.207 361.655H283.035H235.862V408.827H330.207V361.655ZM220.138 361.655H172.965H125.793V408.827H220.138V361.655ZM15.7242 408.827H110.069V361.655H62.8959H15.7233V408.827H15.7242Z" fill="#E9E8E5"/>
</g>
<defs>
<clipPath id="clip0_111_1766">
<rect width="456" height="456" fill="white" transform="matrix(-1 0 0 1 456 0)"/>
</clipPath>
</defs>
</svg>
