<svg width="55" height="55" viewBox="0 0 55 55" fill="none" xmlns="http://www.w3.org/2000/svg">
<path d="M40.3417 35.5254H35.2442C34.7793 35.5254 34.4023 35.9023 34.4023 36.3673V44.7903C34.4023 45.2552 34.7793 45.6322 35.2442 45.6322H40.3417C40.8066 45.6322 41.1836 45.2552 41.1836 44.7903V36.3673C41.1835 35.9023 40.8067 35.5254 40.3417 35.5254ZM39.4998 43.9486H36.086V37.209H39.4998V43.9486Z" fill="#252B33"/>
<path d="M20.5409 35.5254H15.4434C14.9785 35.5254 14.6016 35.9023 14.6016 36.3673V44.7903C14.6016 45.2552 14.9785 45.6322 15.4434 45.6322H20.5409C21.0058 45.6322 21.3828 45.2552 21.3828 44.7903V36.3673C21.3828 35.9023 21.0058 35.5254 20.5409 35.5254ZM19.6991 43.9486H16.2852V37.209H19.6991V43.9486Z" fill="#86C05B"/>
<path d="M40.3417 26.1382H35.2442C34.7793 26.1382 34.4023 26.5151 34.4023 26.98V32.2583C34.4023 32.7233 34.7793 33.1002 35.2442 33.1002H40.3417C40.8066 33.1002 41.1836 32.7233 41.1836 32.2583V26.98C41.1835 26.5151 40.8067 26.1382 40.3417 26.1382ZM39.4998 31.4166H36.086V27.8219H39.4998V31.4166Z" fill="#86C05B"/>
<path d="M30.5956 26.1382H25.4981C25.0332 26.1382 24.6562 26.5151 24.6562 26.98V32.2583C24.6562 32.7233 25.0332 33.1002 25.4981 33.1002H30.5956C31.0605 33.1002 31.4375 32.7233 31.4375 32.2583V26.98C31.4375 26.5151 31.0605 26.1382 30.5956 26.1382ZM29.7538 31.4166H26.3401V27.8219H29.7538V31.4166Z" fill="#252B33"/>
<path d="M20.5409 26.1382H15.4434C14.9785 26.1382 14.6016 26.5151 14.6016 26.98V32.2583C14.6016 32.7233 14.9785 33.1002 15.4434 33.1002H20.5409C21.0058 33.1002 21.3828 32.7233 21.3828 32.2583V26.98C21.3828 26.5151 21.0058 26.1382 20.5409 26.1382ZM19.6991 31.4166H16.2852V27.8219H19.6991V31.4166Z" fill="#252B33"/>
<path d="M30.1387 41.6924C29.6738 41.6924 29.2969 42.0693 29.2969 42.5342V44.7243C29.2969 45.1892 29.6738 45.5661 30.1387 45.5661C30.6037 45.5661 30.9806 45.1892 30.9806 44.7243V42.5342C30.9806 42.0693 30.6038 41.6924 30.1387 41.6924Z" fill="#252B33"/>
<path d="M52.9001 25.0766C52.7425 24.3016 52.2909 23.6355 51.6284 23.2007L45.6682 19.2886V10.7797C45.6682 9.92847 44.973 9.23581 44.1184 9.23581H40.1537C39.2991 9.23581 38.6038 9.92836 38.6038 10.7797V14.6518L30.0264 9.02183C29.5398 8.70257 28.9747 8.53381 28.392 8.53381C27.8245 8.53381 27.2718 8.69451 26.7932 8.99873L18.9654 13.9776C18.5731 14.2272 18.4574 14.7475 18.707 15.1398C18.9565 15.5321 19.4767 15.6478 19.869 15.3983L27.6968 10.4196C27.9046 10.2875 28.145 10.2175 28.392 10.2175C28.6455 10.2175 28.8914 10.2908 29.1026 10.4295L50.7045 24.6083C50.9888 24.795 51.1825 25.0804 51.25 25.4123C51.3169 25.7414 51.2511 26.0763 51.0649 26.3551C50.8268 26.7115 50.4259 26.9243 49.9925 26.9243C49.7397 26.9243 49.4946 26.8511 49.2832 26.7123L28.8357 13.291C28.5588 13.1092 28.2013 13.1068 27.9218 13.2844L6.79516 26.7223C6.58762 26.8543 6.34775 26.9241 6.10143 26.9241C5.66057 26.9241 5.25602 26.7057 5.01915 26.3398C4.83686 26.0582 4.77606 25.7224 4.8476 25.3944C4.91989 25.0636 5.11777 24.7808 5.4049 24.5982L16.8382 17.326C17.2305 17.0764 17.3462 16.5561 17.0967 16.1638C16.8472 15.7714 16.3267 15.6556 15.9346 15.9053L15.1726 16.39V12.551L16.8578 10.8792C17.6432 11.1486 18.4569 11.2805 19.265 11.2805C21.1905 11.2805 23.0832 10.5375 24.477 9.15492C26.4751 7.17288 27.1497 4.17517 26.1965 1.52066C26.1069 1.26854 25.9585 1.03512 25.7676 0.846162C25.5784 0.658603 25.3456 0.512187 25.0935 0.423135C22.4206 -0.520889 19.4046 0.147705 17.4104 2.12631C16.2285 3.2986 15.4806 4.86406 15.3045 6.53426C15.2558 6.9966 15.5911 7.41104 16.0533 7.4597C16.5158 7.50868 16.9301 7.1732 16.9788 6.71075C17.1143 5.42513 17.6887 4.22136 18.5961 3.32138C20.1349 1.7947 22.4652 1.28036 24.5321 2.01029C24.551 2.01695 24.5676 2.02737 24.5822 2.04187C24.595 2.05455 24.6045 2.06927 24.6109 2.08699C25.3449 4.13112 24.8268 6.43629 23.2913 7.95953C21.9701 9.27051 20.0649 9.83447 18.2433 9.50512L21.7337 6.0427C22.0638 5.71527 22.0659 5.18225 21.7385 4.85225C21.411 4.52214 20.8781 4.51999 20.5481 4.84741L15.173 10.1795V9.42874C15.173 8.96382 14.796 8.58687 14.3311 8.58687C13.8662 8.58687 13.4893 8.96382 13.4893 9.42874V10.1794L12.9954 9.68945C13.911 7.05042 13.2314 4.08987 11.2516 2.12652C9.88977 0.775049 7.99098 0 6.04213 0C5.19532 0 4.36313 0.142334 3.56821 0.423027C3.31576 0.512295 3.08255 0.658711 2.89413 0.846055C2.704 1.03469 2.55597 1.26715 2.46606 1.51798C1.51226 4.17549 2.18687 7.1732 4.18481 9.15492C5.54713 10.5061 7.44614 11.2809 9.39466 11.2809C10.2187 11.2809 11.0287 11.1451 11.804 10.879L13.4893 12.5508V17.4607L4.50159 23.1773C3.83279 23.6026 3.37173 24.2624 3.20297 25.035C3.03486 25.8049 3.17794 26.593 3.6058 27.2544C4.15419 28.1018 5.08726 28.6076 6.10154 28.6076C6.66851 28.6076 7.22098 28.4468 7.6989 28.1427L10.426 26.4081V50.0932H7.63971C7.17479 50.0932 6.79784 50.4701 6.79784 50.935V54.1581C6.79784 54.6231 7.17479 55 7.63971 55H48.4548C48.9197 55 49.2966 54.6231 49.2966 54.1581V50.9352C49.2966 50.4702 48.9197 50.0933 48.4548 50.0933H45.6683V26.3533L48.3594 28.1196C48.8459 28.4391 49.4106 28.6078 49.9926 28.6078C50.9897 28.6078 51.9141 28.1152 52.4651 27.29C52.9028 26.6348 53.0571 25.8488 52.9001 25.0766ZM43.9846 18.1834L40.2876 15.7569V10.9194H43.9846V18.1834ZM11.6199 8.32466L7.93082 4.66522C7.60082 4.33791 7.0678 4.34006 6.74027 4.66995C6.41284 5.00006 6.41499 5.53298 6.74499 5.86051L10.4189 9.50512C10.0824 9.56581 9.74034 9.59729 9.39466 9.59729C7.88667 9.59729 6.41993 9.00034 5.37042 7.95953C3.83493 6.4365 3.31684 4.13134 4.05074 2.08656C4.05665 2.07002 4.06675 2.05444 4.08072 2.04069C4.09393 2.02759 4.11069 2.01717 4.12906 2.01062C4.74329 1.79373 5.38686 1.68373 6.04202 1.68373C7.55012 1.68373 9.01664 2.28067 10.0658 3.32159C11.387 4.63182 11.9542 6.52051 11.6199 8.32466ZM47.6129 51.7772V53.3164H8.48157V51.777H38.3869C38.8518 51.777 39.2287 51.4001 39.2287 50.9352C39.2287 50.4702 38.8518 50.0933 38.3869 50.0933H33.3321V36.4698C33.3321 36.0049 32.9552 35.628 32.4903 35.628H23.346C22.881 35.628 22.5041 36.0049 22.5041 36.4698V50.0934H12.1096V25.3374L28.3667 14.9972L43.9846 25.2482V50.0935H42.3152C41.8502 50.0935 41.4733 50.4704 41.4733 50.9354C41.4733 51.4003 41.8502 51.7772 42.3152 51.7772H47.6129ZM24.1877 50.0934V37.3117H31.6483V50.0935L24.1877 50.0934Z" fill="#252B33"/>
</svg>
