<svg width="288" height="334" viewBox="0 0 288 334" fill="none" xmlns="http://www.w3.org/2000/svg">
<g opacity="0.05" clip-path="url(#clip0_76_911)">
<path d="M6.37933 127.586H51.0347H89.3107V82.9309C89.3107 79.1031 91.8623 76.5515 95.69 76.5515H185H223.276V31.8969C223.276 28.0692 225.828 25.5176 229.655 25.5176H318.965H363.621C367.448 25.5176 370 28.0692 370 31.8969V82.9316V133.966V185.001V236.036V287.07V338.105C370 341.933 367.448 344.484 363.621 344.484H274.31H184.999H95.6886H6.37787C2.55011 344.484 -0.00146484 341.933 -0.00146484 338.105V287.07V236.036V185.001V133.966C0 130.139 2.55157 127.586 6.37933 127.586ZM95.6893 280.69H133.965V242.414H95.6893H57.4133V280.69H95.6893ZM185 280.69H223.276V242.414H185H146.724V280.69H185ZM274.311 280.69H312.586V242.414H274.31H236.034V280.69H274.311ZM357.241 280.69V242.414H325.345V280.69H357.241ZM318.965 89.3109H280.689V127.587H318.965H357.241V89.3109H318.965ZM185 140.345H146.724V178.621H185H223.276V140.345H185ZM51.0347 191.38H12.7587V229.656H51.0347H89.3107V191.38H51.0347ZM102.069 229.656H140.345H178.621V191.38H140.345H102.069V229.656ZM229.655 229.656H267.931V191.38H229.655H191.379V229.656H229.655ZM318.965 229.656H357.241V191.38H318.965H280.689V229.656H318.965ZM357.241 140.345H325.345V178.621H357.241V140.345ZM236.035 178.621H274.311H312.586V140.345H274.31H236.034V178.621H236.035ZM44.6554 242.414H12.7587V280.69H44.6554V242.414ZM12.7587 178.621H44.6554V140.345H12.7587V178.621ZM57.414 178.621H95.69H133.966V140.345H95.69H57.414V178.621ZM102.069 127.586H140.345H178.621V89.3102H102.069V127.586ZM191.379 127.586H229.655H267.931V89.3102H229.655H191.379V127.586ZM236.035 76.5523H274.311H312.586V38.2762H236.034V76.5523H236.035ZM357.241 38.2762H325.345V76.5523H357.241V38.2762ZM357.241 293.448H318.965H280.689V331.724H357.241V293.448ZM267.931 293.448H229.655H191.379V331.724H267.931V293.448ZM178.621 293.448H140.345H102.069V331.724H178.621V293.448ZM12.7587 331.724H89.31V293.448H51.034H12.7579V331.724H12.7587Z" fill="#E9E8E5"/>
</g>
<defs>
<clipPath id="clip0_76_911">
<rect width="370" height="370" fill="white" transform="matrix(-1 0 0 1 370 0)"/>
</clipPath>
</defs>
</svg>
